<svg xmlns="http://www.w3.org/2000/svg"
 xmlns:xlink="http://www.w3.org/1999/xlink"
 width="66px" height="59px"  viewBox="0 0 66 59">
<path fill-rule="evenodd"  fill="#ffffff"
 d="M38.107788,12.713379 C38.107788,12.713379 27.60028,12.713379 27.60028,12.713379 C27.60028,12.713379 32.854034,21.905273 32.854034,21.905273 C32.854034,21.905273 38.107788,12.713379 38.107788,12.713379 ZM26.286285,13.47998 C26.286285,13.47998 21.03241,22.670898 21.03241,22.670898 C21.03241,22.670898 31.54004,22.670898 31.54004,22.670898 C31.54004,22.670898 26.286285,13.47998 26.286285,13.47998 ZM44.67566,22.670898 C44.67566,22.670898 39.42169,13.47998 39.42169,13.47998 C39.42169,13.47998 34.16806,22.670898 34.16806,22.670898 C34.16806,22.670898 44.67566,22.670898 44.67566,22.670898 ZM34.16806,24.201172 C34.16806,24.201172 39.42169,33.38916 39.42169,33.38916 C39.42169,33.38916 44.67566,24.201172 44.67566,24.201172 C44.67566,24.201172 34.16806,24.201172 34.16806,24.201172 ZM21.03241,24.201172 C21.03241,24.201172 26.286285,33.38916 26.286285,33.38916 C26.286285,33.38916 31.54004,24.201172 31.54004,24.201172 C31.54004,24.201172 21.03241,24.201172 21.03241,24.201172 ZM14.464661,34.15381 C14.464661,34.15381 24.971344,34.15381 24.971344,34.15381 C24.971344,34.15381 19.718384,24.966797 19.718384,24.966797 C19.718384,24.966797 14.464661,34.15381 14.464661,34.15381 ZM51.243317,34.15381 C51.243317,34.15381 45.989685,24.966797 45.989685,24.966797 C45.989685,24.966797 40.73764,34.15381 40.73764,34.15381 C40.73764,34.15381 51.243317,34.15381 51.243317,34.15381 ZM32.854034,1.9931641 C32.854034,1.9931641 27.60028,11.184082 27.60028,11.184082 C27.60028,11.184082 38.107788,11.184082 38.107788,11.184082 C38.107788,11.184082 32.854034,1.9931641 32.854034,1.9931641 ZM45.989685,44.874023 C45.989685,44.874023 51.243317,35.686035 51.243317,35.686035 C51.243317,35.686035 40.73764,35.686035 40.73764,35.686035 C40.73764,35.686035 45.989685,44.874023 45.989685,44.874023 ZM19.718384,44.874023 C19.718384,44.874023 24.971344,35.686035 24.971344,35.686035 C24.971344,35.686035 14.464661,35.686035 14.464661,35.686035 C14.464661,35.686035 19.718384,44.874023 19.718384,44.874023 ZM7.897003,45.6416 C7.897003,45.6416 18.403687,45.6416 18.403687,45.6416 C18.403687,45.6416 13.150757,36.45117 13.150757,36.45117 C13.150757,36.45117 7.897003,45.6416 7.897003,45.6416 ZM57.811096,45.6416 C57.811096,45.6416 52.557343,36.45117 52.557343,36.45117 C52.557343,36.45117 47.303345,45.6416 47.303345,45.6416 C47.303345,45.6416 57.811096,45.6416 57.811096,45.6416 ZM47.303345,47.171875 C47.303345,47.171875 52.557343,56.358887 52.557343,56.358887 C52.557343,56.358887 57.811096,47.171875 57.811096,47.171875 C57.811096,47.171875 47.303345,47.171875 47.303345,47.171875 ZM34.16806,47.171875 C34.16806,47.171875 39.42169,56.358887 39.42169,56.358887 C39.42169,56.358887 44.67566,47.171875 44.67566,47.171875 C44.67566,47.171875 34.16806,47.171875 34.16806,47.171875 ZM13.150757,56.358887 C13.150757,56.358887 18.403687,47.171875 18.403687,47.171875 C18.403687,47.171875 7.897003,47.171875 7.897003,47.171875 C7.897003,47.171875 13.150757,56.358887 13.150757,56.358887 ZM1.3310547,57.12793 C1.3310547,57.12793 11.835815,57.12793 11.835815,57.12793 C11.835815,57.12793 6.582062,47.938965 6.582062,47.938965 C6.582062,47.938965 1.3310547,57.12793 1.3310547,57.12793 ZM27.60028,57.12793 C27.60028,57.12793 38.107788,57.12793 38.107788,57.12793 C38.107788,57.12793 32.854034,47.938965 32.854034,47.938965 C32.854034,47.938965 27.60028,57.12793 27.60028,57.12793 ZM40.73764,57.12793 C40.73764,57.12793 51.243317,57.12793 51.243317,57.12793 C51.243317,57.12793 45.989685,47.938965 45.989685,47.938965 C45.989685,47.938965 40.73764,57.12793 40.73764,57.12793 ZM59.12509,47.938965 C59.12509,47.938965 53.873047,57.12793 53.873047,57.12793 C53.873047,57.12793 64.377014,57.12793 64.377014,57.12793 C64.377014,57.12793 59.12509,47.938965 59.12509,47.938965 Z"/>
</svg>